<svg width="34" height="34" viewBox="0 0 34 34" fill="none" xmlns="http://www.w3.org/2000/svg">
<path d="M5.22416 12.847C6.11138 9.06467 9.06467 6.11138 12.847 5.22415V5.22415C15.5786 4.58341 18.4214 4.58341 21.153 5.22415V5.22415C24.9353 6.11138 27.8886 9.06467 28.7758 12.847V12.847C29.4166 15.5786 29.4166 18.4214 28.7758 21.153V21.153C27.8886 24.9353 24.9353 27.8886 21.153 28.7758V28.7758C18.4214 29.4166 15.5786 29.4166 12.847 28.7758V28.7758C9.06468 27.8886 6.11138 24.9353 5.22416 21.153V21.153C4.58341 18.4214 4.58341 15.5786 5.22416 12.847V12.847Z" fill="#FAFAFA" fill-opacity="0.15" stroke="#FAFAFA" stroke-width="2.5"/>
<path d="M20.0625 15.4001C21.1736 16.1112 21.1736 17.8888 20.0625 18.5999L16.3125 20.9997C15.2014 21.7108 13.8125 20.822 13.8125 19.3998L13.8125 14.6002C13.8125 13.178 15.2014 12.2892 16.3125 13.0003L20.0625 15.4001Z" stroke="#FAFAFA" stroke-width="2"/>
</svg>
